<svg width="602" height="292" viewBox="0 0 602 292" fill="none" xmlns="http://www.w3.org/2000/svg">
<path d="M98.094 209.366H4.523L0 168.092L85.656 49.9258H152.937V164.134H176.4V209.366H152.937V243.854H98.094V209.366ZM98.094 164.134V105.899L56.256 164.134H98.094Z" fill="#212121"/>
<path d="M523.447 209.366H429.876L425.353 168.092L511.009 49.9258H578.29V164.134H601.753V209.366H578.29V243.854H523.447V209.366ZM523.447 164.134V105.899L481.609 164.134H523.447Z" fill="#212121"/>
<path d="M372.754 218.76C413.026 178.487 413.026 113.193 372.754 72.9202C332.481 32.6477 267.187 32.6477 226.914 72.9202C186.642 113.193 186.642 178.487 226.914 218.76C267.187 259.032 332.481 259.032 372.754 218.76Z" fill="#212121"/>
<path d="M361.463 132.375C361.463 129.609 359.186 127.332 356.42 127.332C353.655 127.332 351.377 129.609 351.377 132.375C351.377 135.14 353.655 137.418 356.42 137.418C359.186 137.418 361.463 135.14 361.463 132.375Z" fill="#FFD000"/>
<path d="M374.639 108.789C356.094 108.789 345.358 116.272 335.272 123.592C325.837 130.262 316.89 136.606 301.599 136.606H197.488C197.488 139.209 197.163 141.649 197 144.252H301.599C319.493 144.252 329.904 136.769 339.827 129.611C348.611 123.267 357.07 117.248 370.898 116.272V136.932C370.898 156.452 363.252 171.093 348.774 179.389C328.928 190.776 302.9 187.198 287.121 177.925C283.217 175.648 277.523 171.418 274.107 165.399C272.806 166.863 271.667 168.49 270.366 169.954C269.878 170.605 269.552 171.256 269.064 171.744C272.48 176.624 277.198 180.853 283.217 184.432C293.953 190.776 306.967 193.867 319.818 193.867C332.669 193.867 343.081 191.264 352.516 185.896C364.391 179.064 378.543 165.074 378.543 136.769V108.789H374.639Z" fill="#FFD000"/>
<path d="M414.408 145.84C414.408 209.133 363.099 260.442 299.806 260.442" stroke="#FFD000" stroke-width="1.1738" stroke-miterlimit="10"/>
<path d="M406.779 29.1936C406.559 33.6446 402.772 37.0746 398.322 36.8546C393.871 36.6346 390.441 32.8486 390.661 28.3976C390.881 23.9466 394.667 20.5166 399.118 20.7366C403.569 20.9556 406.999 24.7426 406.779 29.1936Z" fill="#212121"/>
</svg>
