<svg width="34" height="34" viewBox="0 0 34 34" fill="none" xmlns="http://www.w3.org/2000/svg">
<rect width="34" height="34" rx="10" fill="#F5F5F5"/>
<path d="M9.70755 29.5726L6.32252 22.3535C6.32252 22.3535 3.80973 18.5759 5.90379 12.6351C5.90379 12.6351 4.48173 10.7747 5.07058 10.0421C5.14777 9.9135 5.25713 9.80721 5.38791 9.73369C5.51868 9.66017 5.66635 9.62193 5.8164 9.62278C6.33991 9.62278 7.65719 9.51382 7.65719 9.51382C7.65719 9.51382 9.90822 6.6507 12.9696 5.63061C16.0309 4.61053 20.9525 4.45365 24.198 4.42737H24.2065L27.5915 11.6464C27.5915 11.6464 30.1043 15.4241 28.0102 21.3648C28.0102 21.3648 29.4323 23.2252 28.8434 23.9579C28.7663 24.0863 28.6571 24.1925 28.5265 24.266C28.3959 24.3396 28.2483 24.3778 28.0985 24.3772C27.5749 24.3772 26.2577 24.4861 26.2577 24.4861C26.2577 24.4861 24.0066 27.3492 20.9453 28.3693C17.884 29.3894 12.9623 29.5463 9.71688 29.5726H9.70755Z" fill="white"/>
<path d="M23.5094 5.45642C23.5094 5.45642 17.6239 5.98851 15.9714 6.08391C15.9714 6.08391 11.085 6.4091 8.22435 10.4784L8.19169 10.5403L5.96484 10.609L10.0847 13.0286C10.0847 13.0286 13.8799 6.79873 20.8244 10.3216L23.5094 5.45642Z" fill="#FF5150"/>
<path d="M23.5094 5.45642L20.8223 10.3216C20.8223 10.3216 27.0688 13.8261 23.7538 20.8972L27.8978 23.2952L26.8681 21.2983C26.8681 21.2983 28.4459 18.3173 27.4362 14.3057C27.3041 13.787 27.1241 13.2818 26.8987 12.7963L23.5094 5.45642Z" fill="#F24A4A"/>
<path d="M10.2926 28.4652L12.0986 25.1785C10.2124 22.2149 9.2719 19.1102 9.2719 19.1102C8.43402 15.5004 10.0852 13.0286 10.0852 13.0286L5.96747 10.609L6.97081 12.5707C6.97081 12.5707 5.29547 16.25 6.23772 19.5371C6.23772 19.5371 6.69208 21.3996 7.53038 22.9518C7.92238 23.6777 8.31056 24.4056 8.67287 25.1472L10.2926 28.4652Z" fill="#004F63"/>
<path d="M27.8983 23.2952L23.7543 20.8972C23.7543 20.8972 22.1227 23.9227 18.8756 24.6282C18.8756 24.6282 14.7927 25.4914 12.097 25.1794L10.291 28.466C10.291 28.466 18.2214 28.2117 19.6871 27.7165C19.6871 27.7165 23.4035 26.5654 25.733 23.5051L27.8983 23.2952Z" fill="#004253"/>
<path d="M15.4484 11.5507L14.7374 12.8718C14.7374 12.8718 11.2959 13.2856 12.2729 17.1221L11.5225 18.4123L12.7612 19.1797C12.7612 19.1797 13.4791 22.8085 17.0889 21.6735L18.3617 22.371L19.0943 21.1503C19.0943 21.1503 22.6016 20.5398 21.6398 16.8432L22.3457 15.5394L21.0369 14.7419C21.0369 14.7419 20.474 11.1916 16.8094 12.2939L15.4484 11.5507Z" fill="#00BA94"/>
</svg>
