<svg width="114" height="106" viewBox="0 0 114 106" fill="none" xmlns="http://www.w3.org/2000/svg">
<path d="M0 24.9346L31.4867 0C31.6687 0.91003 32.0327 1.82004 32.2147 2.73006C32.3967 3.64008 32.7607 4.73211 32.9427 5.64213C33.8528 9.1002 34.9448 14.0143 36.2188 20.3845L36.7648 23.1145C37.3108 25.4806 38.9489 26.7546 41.3149 26.7546H47.139C50.2331 26.7546 51.6892 25.2986 51.6892 22.2045V5.09612H77.3517V22.2045C77.3517 23.4785 77.8977 24.5705 78.8078 25.4806C79.7178 26.3906 80.8098 26.7546 82.0838 26.7546H83.5399C86.6339 26.7546 88.09 25.2986 88.09 22.2045V5.09612H113.753V22.2045C113.753 22.5685 113.753 23.6605 113.753 25.2986C113.571 27.1186 113.571 29.3027 113.571 32.0327C113.389 34.7628 113.389 37.8568 113.207 41.1329C113.025 44.409 113.025 47.6851 112.843 50.9611C112.661 54.0552 112.115 56.9673 110.84 59.6973C109.566 62.4274 107.746 64.9754 105.744 66.9775C103.742 68.9795 101.194 70.6176 98.4642 71.7096C95.7341 72.9836 92.8221 73.5296 89.728 73.5296H82.4478C82.2658 73.5296 82.0838 73.5296 81.9018 73.3476C81.7198 73.3476 81.3558 73.3476 81.1738 73.3476H80.9918C79.5358 73.1656 78.0797 72.9836 76.6237 72.6196C74.9857 72.4376 73.3476 71.8916 71.7096 71.3456L64.6114 68.6155L57.6953 71.3456C54.0552 72.8016 50.2331 73.5296 46.411 73.5296H40.4049C40.0409 79.3538 39.3129 84.9959 38.2209 90.274C36.9468 95.7341 35.3088 100.83 32.9427 105.38H8.19018C10.7382 94.6421 11.8303 84.4499 11.2843 74.8037C10.7382 65.1575 9.46421 56.7853 7.82617 49.3231C6.91615 44.955 5.82413 40.7689 4.5501 36.5828C3.27607 32.5787 1.63804 28.7566 0 24.9346Z" fill="#212121" fill-opacity="0.08"/>
</svg>
