<svg width="74" height="106" viewBox="0 0 74 106" fill="none" xmlns="http://www.w3.org/2000/svg">
<path d="M0 24.9346L31.4867 0C32.0327 1.63804 32.3967 3.27607 32.7607 4.91411C33.1247 6.73415 33.4888 8.5542 34.0348 10.5562C34.7628 13.8323 35.4908 17.6544 36.4008 22.2045C37.3108 26.7546 38.0388 31.4867 38.7669 36.7648H47.6851L43.681 9.28221L72.4376 1.63803L73.7116 59.6973C73.7116 62.9734 73.1656 66.0675 72.0736 68.9795C70.7996 71.8916 69.1615 74.4397 67.1595 76.4417C64.9754 78.6258 62.4274 80.2638 59.6973 81.5378C56.7853 82.8119 53.6912 83.5399 50.4151 83.5399H39.4949C38.9489 87.3619 38.0388 91.184 37.1288 94.8241C36.0368 98.6462 34.5808 102.104 32.9427 105.38H8.19018C10.7382 94.6421 11.8303 84.4499 11.2843 74.8037C10.7382 65.1575 9.46421 56.7853 7.82617 49.3231C6.91615 44.955 5.82413 40.7689 4.5501 36.5828C3.27607 32.5787 1.63804 28.7566 0 24.9346Z" fill="#212121" fill-opacity="0.08"/>
</svg>
