<svg width="106" height="106" viewBox="0 0 106 106" fill="none" xmlns="http://www.w3.org/2000/svg">
<path d="M0 24.9346L31.4867 0L34.2168 11.1022C34.9448 14.5603 35.6728 18.3824 36.5828 22.9325C37.4928 27.4826 38.2209 32.5787 38.9489 38.0389H45.137L42.4069 27.6646C41.4969 23.2965 42.2249 19.2924 44.591 15.4703C46.957 11.6483 50.2331 9.46422 54.6012 8.5542L99.5562 0.182007L97.9182 30.0307L78.6257 31.6687L82.2658 47.5031L105.926 39.8589V76.6237L89 79.8998C72.6196 83.1759 56.0573 84.8139 39.1309 84.8139C38.0388 92.6401 36.0368 99.3742 32.9427 105.38H8.37219C10.7382 94.6421 11.8303 84.4499 11.2843 74.8037C10.7382 65.1575 9.64622 56.7853 8.00818 49.3231C6.00613 40.7689 3.45808 32.5787 0 24.9346Z" fill="#212121" fill-opacity="0.08"/>
</svg>
