<svg width="198" height="213" viewBox="0 0 198 213" fill="none" style="opacity: 0.4" xmlns="http://www.w3.org/2000/svg">
<path d="M-8.9156 170.947C-7.99816 171.578 -7.05205 172.094 -6.07727 172.581C-17.746 177.369 -15.4524 184.078 -13.0727 187.088C-12.2987 188.063 -11.2952 188.78 -10.2057 189.439C-7.28141 191.217 -4.12771 192.363 -0.744647 192.794C0.975554 193.023 2.72442 192.994 4.47329 193.109C4.75999 193.109 5.07536 192.994 5.27605 193.396C5.04669 193.711 4.78866 194.055 4.53063 194.399C1.80698 198.126 2.32304 202.398 4.53063 205.867C5.04669 206.698 5.79211 207.387 6.42285 208.132C6.5662 208.304 6.68088 208.476 6.76689 208.591C6.30817 209.336 5.84945 209.996 5.47674 210.712C3.64186 214.296 1.83565 217.937 0.000772476 221.521C-0.0852375 221.722 -0.171247 221.894 -0.257257 222.066C1.00422 222.84 2.23703 223.671 3.46984 224.474C4.93201 225.449 6.45152 226.337 7.85635 227.37C8.2864 227.685 8.74512 228 9.23251 228.287C9.7199 228.574 10.2933 228.946 10.8954 228.975C11.3254 228.975 11.6981 228.344 11.9275 228.029C12.2715 227.542 12.5869 227.054 12.9309 226.567C13.7337 225.506 16.2853 220.947 16.8301 219.829C16.8874 219.715 17.0021 219.657 17.1741 219.514C17.7188 220.059 18.2636 220.632 18.8083 221.148C21.5319 223.814 24.5136 226.194 27.7533 228.23C31.8245 230.781 36.1536 232.587 40.9415 233.132C45.0987 233.62 49.1985 233.39 53.1836 232.071C54.5024 231.641 60.9532 229.52 63.7915 226.997C63.8775 228.316 63.9349 229.663 64.1069 230.982C64.5369 234.107 69.2962 261.774 103.585 259.91C130.736 258.419 146.562 249.876 152.238 244.83C170.501 243.683 201.637 232.186 197.193 199.904C196.82 197.209 195.874 194.657 194.641 192.22C194.068 191.073 193.38 189.984 192.635 188.923C191.316 187.06 189.854 185.339 188.162 183.82C185.266 181.24 181.941 179.806 178.042 179.806C174.142 179.806 177.038 179.806 176.465 179.663C196.734 169.456 192.807 131.984 182.199 117.678C177.009 107.386 165.713 99.1 157.886 100.161C161.384 99.6734 165.713 99.1 165.713 99.1C164.853 96.319 164.739 86.5425 162.244 85.4244C160.237 85.7397 156.138 86.5138 151.522 87.3739C152.21 86.8292 152.927 86.3131 153.701 85.7971C154.073 85.5391 154.475 85.281 154.847 84.9657C155.105 83.9909 154.79 83.3028 154.331 82.6721C153.443 81.4106 152.554 80.1491 151.694 78.8876C151.063 77.9702 150.461 77.0241 149.802 76.1353C148.913 74.9312 148.196 73.6123 147.107 72.4942C146.791 72.5802 146.504 72.6089 146.246 72.7522C145.444 73.1536 144.641 73.555 143.896 74.0711C142.233 75.1892 140.627 76.3933 138.964 77.5401C138.19 78.0849 137.387 78.5722 136.585 79.031C135.925 79.4037 135.61 79.289 135.18 78.6869C134.75 78.1135 134.348 77.5115 133.918 76.9094L130.908 72.6089C129.962 71.2901 129.044 69.9426 128.098 68.6238C127.926 68.3944 127.668 68.2224 127.439 68.0504C126.407 68.2224 125.518 68.6524 124.687 69.1398C123.712 69.6845 122.708 70.2579 121.734 70.8027C121.562 69.7706 121.332 68.7671 121.017 67.7637C120.443 65.9574 119.641 64.2946 118.695 62.6604C116.43 60.0514 113.677 58.0732 110.696 56.3243C108.029 54.7475 105.22 53.5433 102.353 52.3965C102.009 52.2532 101.636 52.1385 101.263 52.0238C101.55 51.3931 101.808 50.7623 102.095 50.1029C103.012 47.9527 103.958 45.8311 104.675 43.6235C107.771 44.799 110.868 45.9745 113.964 47.1499C114.222 47.2359 114.451 47.3506 114.709 47.408C115.942 47.752 116.602 47.4366 117.146 46.2898C117.462 45.6304 117.72 44.9137 118.035 44.2543C119.125 41.76 120.185 39.2943 120.931 36.6854C122.336 31.7255 101.722 27.855 99.5144 27.511C96.332 27.0236 93.0636 26.9662 89.8526 27.2529C87.0142 27.511 84.2046 27.9984 81.4809 28.8011C78.8433 29.5752 76.263 30.636 73.9407 32.1842C73.7974 32.2702 73.6253 32.1842 73.5393 32.0695C73.3386 31.7541 73.1379 31.4674 72.9373 31.1521C71.9625 29.7186 70.959 28.3137 69.9843 26.8802C49.3992 -3.79667 26.7499 -4.14071 13.9057 5.80778C4.5593 13.0613 1.46294 30.722 1.23358 31.2381C-1.66209 51.6511 1.23358 71.4908 1.6923 73.899C5.76344 94.054 20.7005 103.372 20.7005 103.372C20.7005 104.949 20.5285 106.554 20.5285 108.131C20.5285 110.711 20.5858 113.292 21.0159 115.815C21.3599 117.85 22.1914 121.721 23.3095 123.355C21.3313 124.96 14.2211 130.723 12.3862 131.354C10.0066 132.185 7.713 133.246 5.44807 134.335C3.1258 135.454 0.975553 136.858 -1.11736 138.321C-3.49697 139.955 -5.84791 141.704 -8.02683 143.596C-10.1197 145.402 -11.8399 147.524 -12.9867 150.075C-14.5636 153.516 -15.0796 157.157 -14.7069 160.912C-14.3056 165.127 -12.3847 168.481 -8.88693 170.918L-8.9156 170.947ZM12.6156 187.576C11.2107 187.49 9.80591 187.289 8.42975 187.002C5.27605 186.314 2.52373 184.766 0.258803 182.444C-1.43273 180.695 -1.7481 178.401 -0.658637 176.394C2.72442 176.796 7.82768 176.394 10.408 176.136C12.6442 175.878 14.8805 175.506 17.1168 175.19C17.6328 175.133 18.1202 175.047 18.6936 174.961C19.1237 175.62 19.181 176.28 19.2957 176.91C19.8691 180.007 20.6432 183.046 21.6753 185.999C21.79 186.314 14.5365 187.69 12.5869 187.576H12.6156ZM49.3419 220.001C47.4783 221.664 45.3854 222.811 43.0631 223.585C39.6801 224.732 32.3405 226.079 22.0767 216.389C33.258 220.374 46.8189 219.084 51.062 218.224C50.546 218.826 49.9726 219.428 49.3419 219.973V220.001ZM56.4807 201.251C56.1653 204.061 54.8178 209.824 54.1584 212.576C53.671 214.611 24.5136 207.358 21.3599 205.638C19.7831 204.749 18.3209 203.717 17.2314 202.255C15.97 200.563 14.9378 198.728 14.8805 196.521C14.7372 191.532 20.0124 190.5 22.9655 189.468C23.3382 190.414 23.7109 191.331 24.1122 192.277C24.8577 194.112 25.6891 195.89 26.5205 197.696C26.8359 198.384 27.2659 199.044 27.61 199.732C27.9827 200.477 28.6421 200.821 29.5309 200.649C29.9036 200.563 30.2763 200.448 30.6203 200.334C33.9461 199.13 37.3004 197.983 40.5975 196.693C42.6331 195.89 44.5253 194.8 46.1021 193.252C48.5678 190.815 50.546 188.034 51.8075 184.766C52.6102 182.673 53.1836 180.551 53.4703 178.373C54.8465 179.663 58.0002 188.35 56.4807 201.28V201.251ZM32.4839 171.348C33.4013 171.176 34.3474 171.262 35.2075 171.549C37.6732 172.409 39.25 174.129 39.9094 176.71C40.4828 178.917 40.4541 181.125 39.8234 183.332C39.5367 184.365 39.25 185.397 38.9346 186.429C38.7626 187.002 38.5046 187.547 38.2179 188.292C36.125 184.938 32.5412 175.19 32.4839 171.377V171.348ZM62.358 174.989C61.1252 174.301 60.0931 173.327 59.0036 172.409C49.2845 161.887 39.9954 164.152 36.5837 164.955C36.1823 165.012 35.7809 165.041 35.3509 165.098H35.3796C35.4369 165.098 35.4942 165.098 35.5516 165.098H35.4369C35.4656 165.098 35.4369 165.098 35.3222 165.098C35.2935 165.098 35.2649 165.098 35.2362 165.098C34.9208 164.84 35.1502 164.955 35.3222 165.098C37.0137 164.468 38.6766 163.693 40.3108 163.005C42.6617 162.002 45.0127 160.97 47.1916 159.651C49.1985 158.418 51.1481 157.128 53.1263 155.867C54.0151 155.293 54.9038 154.691 55.7926 154.118C57.2548 153.172 58.7169 152.197 60.1791 151.251C60.3798 151.107 60.6378 151.079 60.9245 150.964C61.1252 151.222 61.3546 151.423 61.4693 151.681C61.928 152.656 62.3867 153.63 62.8167 154.605C62.8741 154.748 62.9601 154.92 63.0174 155.064C63.7915 156.469 64.5369 157.902 65.139 159.393C66.2858 162.26 67.8053 165.041 68.3501 168.137C68.5221 169.198 68.6941 170.23 68.7801 171.291C68.8948 172.667 68.3501 174.015 67.2319 174.846C67.1746 174.903 67.0886 174.961 67.0312 174.989C65.5404 175.993 63.8202 175.85 62.3007 174.989H62.358ZM43.4358 79.9771C44.0666 79.547 44.6686 79.0883 45.3567 78.6869C45.7868 78.4289 46.3028 78.2855 46.7902 78.1709C47.5643 77.9988 48.2237 78.2282 48.5104 78.945C49.8866 82.3567 49.9439 85.3384 47.1629 87.632C46.9909 87.7753 46.8476 87.9187 46.6755 88.062C45.4714 88.9508 44.3246 89.9256 42.9771 90.5563C41.0275 91.5024 38.992 92.2765 36.8704 92.7639C36.5264 92.8499 36.211 92.9359 35.8383 92.6492C35.8669 92.4199 35.8956 92.1618 35.953 91.9325C36.8131 89.0941 37.9025 86.3418 39.6227 83.8762C40.6835 82.3567 41.8876 80.9805 43.4358 79.9484V79.9771ZM30.6777 40.9572C30.305 39.323 30.6777 37.6028 30.9357 35.94C31.1651 34.5638 31.6238 33.2736 32.0825 31.9835C32.5126 30.7507 33.2006 29.6612 34.1754 28.7725C35.7236 27.339 37.5298 26.3642 39.422 25.4181C51.6928 19.34 50.6893 46.6625 50.8327 52.5972C50.9474 56.783 50.7754 60.9402 50.2593 65.0973C50.0873 66.3875 49.9439 67.649 49.8292 68.9391C49.7432 69.8566 49.4279 70.688 49.1412 71.5768C48.9691 71.4621 48.8545 71.4334 48.7398 71.3474C45.9588 68.9965 33.9174 55.2349 30.6777 40.9285V40.9572ZM48.023 103.314C49.0265 102.97 50.0013 102.569 51.1481 102.11C50.8614 102.712 50.632 103.142 50.4313 103.601C49.8006 104.891 49.3992 106.239 49.2558 107.672C49.1125 109.02 49.3419 110.339 49.8292 111.6C50.2593 112.718 50.7754 113.808 51.3201 114.868C51.5781 115.356 54.2158 120.516 56.7387 124.817C54.8178 122.925 52.7536 121.205 50.5747 119.599C48.8545 118.338 47.0769 117.162 45.2134 116.073C44.0666 115.413 42.8051 114.983 41.5149 114.725C39.5654 114.352 37.7018 114.61 35.9243 115.471C34.8635 115.987 33.774 116.445 32.6559 116.961C32.3692 115.27 32.2832 112.518 32.3405 111.113C32.4265 109.192 32.6272 107.242 32.7706 105.264C33.172 105.264 33.4873 105.235 33.8314 105.264C38.7053 105.522 43.4358 104.92 48.0517 103.314H48.023ZM89.6519 143.338C89.1071 144.513 88.6198 145.717 88.2184 146.922C87.817 148.097 87.473 149.301 87.1576 150.505C86.8709 151.767 86.6128 153.028 86.4122 154.29C86.2115 155.551 86.0968 156.841 85.9534 158.103C85.6094 158.189 85.5521 157.959 85.4947 157.759C85.0933 156.096 73.74 141.13 73.1953 140.499C75.2595 139.639 93.637 130.694 95.4719 130.006C97.2781 129.318 99.027 128.487 100.862 127.885C100.891 127.971 96.5613 132.644 95.7299 133.647C94.9272 134.593 94.1817 135.597 93.4937 136.629C92.7482 137.69 92.0602 138.779 91.4294 139.869C90.7987 140.987 90.1966 142.134 89.6519 143.309V143.338ZM99.457 184.193C101.206 185.253 100.69 185.397 102.553 186.113C102.611 186.113 102.668 186.056 102.553 186.113C99.9444 187.518 94.4398 190.471 91.8595 191.905C91.0854 192.335 90.7413 192.507 90.34 192.679C89.9959 192.105 89.6519 191.561 89.3365 190.987C88.2757 189.124 83.0291 174.903 87.1576 168.797C87.7597 169.37 87.989 170.001 88.2184 170.574C90.5406 176.337 94.1817 180.953 99.4857 184.164H99.457V184.193ZM80.3341 174.903C80.3341 175.649 80.3055 176.853 80.2481 178.287C80.1334 177.426 79.9327 176.566 79.6747 175.706C79.1586 174.015 78.4419 172.409 77.6391 170.861C76.693 169.026 75.4889 167.363 74.4568 165.586C74.3134 165.328 74.1701 165.07 74.0267 164.812C76.2056 165.213 78.2986 165.7 80.4201 165.528C80.3628 168.367 80.3055 172.839 80.3055 174.932H80.3341V174.903ZM87.7597 108.704C87.2436 109.02 86.8996 109.392 86.7275 109.823C86.2401 108.819 85.7528 107.844 85.294 106.841C84.6633 105.522 84.0326 104.232 83.3445 102.77C83.6312 102.77 83.8319 102.712 84.0039 102.741C85.9821 103.056 87.9603 103.429 89.9386 103.687C92.1462 104.003 93.551 104.146 95.7586 104.318C94.3251 104.949 88.4477 108.36 87.7883 108.676H87.7597V108.704ZM86.8709 116.302C87.3869 115.929 87.9317 115.614 88.4191 115.184C89.9099 117.334 91.8881 119.513 92.8629 121.061C92.6622 121.147 92.5475 121.205 92.4615 121.233C90.34 122.151 88.2184 123.097 86.0681 124.014C85.122 124.416 84.1472 124.731 83.2298 125.161C81.7389 125.878 80.4775 126.881 79.5314 128.229C78.6999 129.433 77.9545 130.666 77.1517 131.898C76.2343 133.303 73.0233 136.113 71.5611 137.833C71.4177 137.489 71.3031 137.145 71.2171 136.801C70.7297 135.023 70.9304 133.303 71.5611 131.612C72.2205 129.834 73.31 128.257 74.4568 126.767C75.8616 124.96 77.5245 123.412 79.302 122.007C81.7676 120.058 84.3193 118.166 86.8709 116.273V116.302ZM65.4831 148.842C67.0599 147.839 68.6941 146.922 70.529 146.463C70.7297 146.405 70.9304 146.377 71.1024 146.348C71.1024 146.348 72.1632 147.753 72.4499 148.584C72.7939 149.588 72.9946 150.649 72.8512 151.709C72.7079 152.828 72.1345 153.544 71.045 153.774C69.6115 154.089 68.3214 153.774 67.2033 152.799C66.1711 151.91 65.4831 150.792 64.9097 149.645C64.967 149.215 65.225 149.043 65.4831 148.871V148.842ZM63.6768 119.284C62.9314 120.631 62.272 122.036 61.8706 123.555C61.7273 124.129 61.5553 124.702 61.3259 125.448C60.6665 124.416 59.8924 123.67 59.4624 122.695C59.0036 121.635 58.5449 120.574 58.3442 119.398C57.7422 116.015 59.0323 113.722 61.6413 112.087C63.1034 111.17 64.7376 110.654 66.4292 110.396C67.8053 110.195 69.2388 110.167 70.615 110.081H70.9877C70.9877 110.167 71.0164 110.281 71.045 110.367C70.4143 110.998 69.7836 111.6 69.1528 112.231C67.0312 114.381 65.0817 116.617 63.6195 119.284H63.6768ZM70.7297 97.3798C66.4865 97.6091 62.2434 97.8098 57.9715 98.0105C57.7422 98.0105 57.4841 98.0105 57.0541 97.9818C57.2834 97.7525 57.3695 97.6091 57.4841 97.5231C59.1183 95.8889 59.7491 93.8247 59.8637 91.5598C59.9211 90.0402 59.6057 88.5781 59.0323 87.1732C58.4016 85.5964 57.3981 84.2776 56.452 82.9014C55.8499 82.0126 55.2765 81.1239 54.6745 80.2638C54.7031 80.2064 54.7318 80.1778 54.7605 80.1491C54.7892 80.1491 54.8465 80.1204 54.8752 80.1204C55.0472 80.1491 55.2192 80.1778 55.3626 80.2351C56.8247 80.6652 58.2869 81.1239 59.8064 81.5826C61.4119 88.5781 65.397 93.5667 71.3031 97.1504C71.1884 97.4658 70.9304 97.3798 70.7583 97.4084L70.7297 97.3798ZM35.7236 132.3C36.125 131.956 36.555 131.583 36.9564 131.239C38.4186 130.035 39.8234 128.831 41.3429 127.684C43.3498 126.164 45.5001 124.846 47.9657 124.158C48.7685 123.928 49.5999 123.699 50.4887 123.785C50.6033 123.957 50.7467 124.1 50.8614 124.272C51.3201 124.932 51.7788 125.62 52.2375 126.279C52.3235 126.422 52.4669 126.652 52.5242 126.795C53.5277 128.802 54.4164 130.866 54.7318 133.131C54.8178 133.791 54.8752 134.479 54.7892 135.138C54.6458 136.543 54.0724 137.776 52.9543 138.751C50.7754 140.671 48.2524 141.818 45.3854 142.134C43.2065 142.363 41.0562 142.076 38.9346 141.675C38.4759 141.589 38.0459 141.302 37.7878 140.872C37.6445 140.614 37.4725 140.356 37.3578 140.098C36.4977 138.321 35.8096 136.514 35.1215 134.622C34.8062 133.791 35.0355 132.873 35.7236 132.3ZM68.7228 203.745C68.5794 204.003 68.3787 204.233 68.2354 204.434C68.1207 204.434 68.092 204.376 68.0634 204.348C68.0347 204.348 68.006 204.29 68.006 204.233C67.92 203.631 68.9521 194.256 65.397 183.762C65.8844 183.963 66.2285 184.107 66.5439 184.25C67.8053 184.881 69.0381 185.54 70.3283 186.142C71.5324 186.687 72.8226 187.06 74.1414 187.06C76.3777 187.06 78.2125 186.199 79.388 184.193C79.732 183.59 79.9901 182.931 80.1334 182.272C80.0761 184.221 80.0188 186.085 80.0188 187.375C79.2447 188.264 78.4419 189.152 77.6965 190.07C74.9728 193.424 72.5932 197.065 70.3856 200.792C69.8122 201.739 69.2675 202.742 68.7228 203.688V203.745ZM109.119 226.767C108.029 227.255 106.997 227.742 105.965 228.373C104.331 229.376 101.407 231.412 99.9157 232.616C100.03 232.788 105.822 242.507 106.997 244.457C106.625 244.457 106.28 244.514 105.506 244.572C101.063 244.887 96.6187 244.858 92.2035 244.228C88.3904 243.654 84.692 242.651 81.2802 240.816C78.4419 239.268 76.0623 237.289 74.0841 234.738C72.9373 233.276 72.3352 231.613 71.7905 229.921C70.787 226.825 70.4716 223.614 70.615 220.345C70.7583 216.819 71.4464 213.379 72.5646 210.053C73.568 207.043 74.9155 204.176 76.4637 201.395C77.6678 199.244 79.044 197.151 80.4775 195.144C83.0291 207.874 96.9054 218.74 110.008 226.395C109.692 226.538 109.406 226.681 109.09 226.796H109.119V226.767ZM121.418 242.135C119.067 242.651 116.716 243.109 114.337 243.511C115.885 242.679 117.433 241.877 118.953 241.016C119.469 240.73 119.985 240.414 120.443 240.042C121.304 239.354 121.504 238.465 121.074 237.461C120.902 237.06 120.673 236.687 120.415 236.315C119.067 234.336 117.691 232.329 116.315 230.351C116.143 230.093 115.942 229.835 115.77 229.577C125.776 234.881 134.176 238.006 134.864 238.35C135.925 238.866 125.203 241.303 121.39 242.163L121.418 242.135ZM145.157 234.709C140.971 233.304 136.957 231.555 133.087 229.462C129.675 227.628 126.349 225.621 123.024 223.556C120.013 221.693 117.06 219.743 114.165 217.65C109.721 214.439 105.65 210.798 101.808 206.87C101.292 206.354 100.776 205.838 100.288 205.294C102.668 203.975 105.048 202.627 107.427 201.309C108.287 200.821 109.205 200.448 110.065 200.018C110.667 199.703 111.298 199.416 111.842 199.015C112.645 198.47 112.817 197.983 112.473 197.037C111.871 195.345 111.183 193.682 110.524 191.991C110.008 190.701 109.463 189.41 108.947 188.12C113.477 189.324 118.093 189.812 122.794 189.898C127.697 189.984 132.6 189.755 137.473 189.468C140.254 189.296 141.172 189.238 143.924 188.923C143.265 193.109 142.175 201.681 142.433 202.455C142.663 203.229 146.275 210.569 146.59 211.343C147.565 213.637 148.54 215.902 149.544 218.195C150.977 221.492 152.095 224.933 153.299 228.344C153.299 228.459 153.414 228.574 153.443 228.717C153.987 230.409 148.712 235.913 145.186 234.738H145.157V234.709ZM188.277 211.4C188.764 211.572 189.223 211.802 189.624 212.088C193.667 215.242 183.948 227.398 156.74 235.885C157.428 234.136 158.03 232.387 158.489 230.581C159.205 227.771 159.578 224.933 159.578 222.037C159.578 219.141 159.177 218.711 158.775 217.077C158.145 214.525 150.69 194.8 147.995 188.436C149.716 188.206 151.464 187.948 153.185 187.69C157.944 186.945 162.674 185.941 167.319 184.651C164.767 188.694 160.696 198.728 160.926 204.606C161.012 207.301 163.018 210.254 165.885 210.569C166.86 210.684 167.835 210.798 168.81 210.798C171.877 210.798 174.945 210.712 178.013 210.655C180.02 210.655 182.027 210.598 184.005 210.655C185.467 210.655 186.901 210.942 188.277 211.4ZM179.733 194.628C180.536 195.23 181.253 196.005 181.998 196.693C182.084 196.779 182.084 196.922 182.17 197.065C181.654 197.266 181.138 197.18 180.65 197.209C177.583 197.209 174.544 197.209 171.476 197.266H168.924C168.064 197.266 167.262 196.979 166.688 196.205C166.832 195.947 166.918 195.689 167.09 195.517C168.666 193.768 170.587 192.708 172.967 192.536C175.519 192.335 177.755 193.166 179.762 194.657H179.733V194.628ZM153.471 100.849C153.471 100.868 153.471 100.868 153.471 100.849V100.849ZM178.156 170.689C175.175 173.556 150.547 178.286 124.343 176.738C121.533 176.566 118.752 176.222 115.971 175.678C112.014 174.875 108.201 173.699 104.646 171.75C101.808 170.202 99.2563 168.281 97.1921 165.758C96.418 164.812 94.6404 161.486 103.872 160.196C107.169 159.737 110.495 159.794 113.821 159.966C118.465 160.224 123.081 160.712 127.64 161.572C129.905 161.973 132.141 162.547 134.377 163.063C135.696 163.378 137.043 163.693 138.334 164.095C139.423 164.439 142.634 165.156 143.293 165.328C145.673 165.987 148.053 166.675 150.432 167.335C151.665 167.679 152.898 168.023 154.159 168.252C155.105 168.424 156.109 168.539 157.084 168.567C159.349 168.567 175.949 162.203 161.069 124.702C159.32 120.316 155.765 117.162 152.066 114.295C151.78 114.066 151.378 113.951 151.264 113.464C182.141 117.793 187.245 162.002 178.128 170.746V170.689H178.156ZM153.557 134.249C162.244 146.061 160.065 155.293 158.517 155.121C158.231 155.121 157.944 155.006 157.628 154.949C154.446 154.089 151.292 153.229 148.11 152.398C146.017 151.853 143.896 151.365 141.774 150.849C141.201 150.706 140.627 150.534 140.054 150.391C136.126 149.358 132.198 148.47 128.213 147.782C124.601 147.151 120.96 146.807 117.29 146.635C114.91 146.549 112.502 146.463 110.122 146.577C112.273 143.854 117.118 137.346 117.748 136.772C117.892 136.629 118.007 136.428 118.207 136.199C117.949 135.912 117.72 135.597 117.462 135.339C114.423 132.443 111.384 129.548 108.373 126.652C108.087 126.394 107.829 126.107 107.542 125.82C108.001 125.218 108.603 125.018 109.205 124.788C112.789 123.527 116.372 122.323 120.128 121.692C124.085 121.004 128.07 120.803 132.083 121.377C136.814 122.065 141.115 123.814 145.071 126.451C148.282 128.601 151.264 131.096 153.586 134.221H153.557V134.249ZM119.784 81.812C120.673 83.0448 121.533 84.3062 122.422 85.5104C122.766 85.9978 123.138 86.4565 123.568 86.8865C124.228 87.5746 125.059 87.718 125.919 87.2593C126.636 86.8866 127.353 86.4852 128.041 86.0551C129.302 85.281 130.564 84.4783 131.825 83.6755C132.772 83.0734 133.66 82.4427 134.635 81.898C135.696 81.2959 135.811 81.3532 136.47 82.3567C137.674 84.1056 138.936 85.8544 140.168 87.6033C140.541 88.148 140.914 88.6928 141.315 89.2375C137.359 89.9256 133.918 90.4703 132.112 90.585C128.758 90.8143 125.403 91.0724 122.049 91.187C117.548 91.3591 113.018 91.3591 108.517 91.187C108.144 91.187 107.771 91.1584 107.169 91.101C107.513 90.843 107.657 90.7283 107.8 90.6423C109.492 89.7249 111.154 88.7501 112.846 87.8613C116.258 86.0264 118.465 83.9049 119.841 81.812H119.784ZM101.55 77.6835C102.152 75.2752 102.725 72.8382 103.356 70.4586C103.93 68.3084 104.589 66.1581 105.248 64.0366C105.707 62.517 106.567 61.2556 107.857 60.3095C108.459 59.8794 108.66 59.9081 109.147 60.4241C110.524 61.8863 111.154 63.6925 111.412 65.6421C111.756 68.251 111.04 70.5733 109.377 72.5802C108.029 74.2144 106.51 75.6192 104.732 76.7374C103.987 77.1961 103.213 77.6835 102.467 78.1709C102.209 78.3429 101.951 78.4862 101.521 78.2282C101.521 78.0275 101.521 77.8555 101.579 77.7121H101.55V77.6835ZM103.012 104.719C107.485 104.805 111.957 104.719 116.43 104.433C121.16 104.117 125.862 103.687 130.564 103.257C135.495 102.798 140.369 102.082 145.243 101.222C146.705 100.964 148.167 100.619 149.63 100.333C149.916 100.275 150.203 100.247 150.547 100.333C149.916 100.562 149.314 100.82 148.683 101.021C143.351 102.827 110.323 113.607 107.714 114.639C106.911 114.954 106.137 115.299 105.363 115.643C105.736 115.413 106.137 115.184 106.481 114.897C107.169 114.352 107.313 113.664 106.969 112.862C106.825 112.546 106.653 112.259 106.452 111.973C105.392 110.425 104.331 108.848 103.241 107.3C102.611 106.411 101.98 105.522 101.321 104.605C101.894 104.605 102.467 104.633 103.041 104.662V104.719H103.012ZM106.653 146.836C103.786 147.151 100.977 147.724 98.2242 148.699C96.848 149.186 95.5006 149.674 94.2391 150.448C93.723 150.763 93.1783 151.021 92.5475 151.337C92.0028 147.294 94.9271 142.277 97.4214 137.833C100.346 140.585 103.729 144.141 106.625 146.836H106.653ZM92.4902 35.1085C96.1026 33.1303 100.002 32.1555 104.102 31.8115C104.446 31.8115 104.761 31.7541 105.105 31.7541C103.93 34.0764 102.725 36.3987 101.55 38.7209C99.0843 37.8608 96.6187 36.8861 94.1531 35.9973C93.4937 35.7679 92.8629 35.5386 92.2035 35.3092C92.2895 35.2519 92.4042 35.1945 92.4902 35.1372V35.1085ZM80.7642 51.2784C81.3662 47.408 82.9431 43.9676 85.38 40.9285C86.5842 39.4377 87.9317 38.1762 89.4225 37.0581C87.989 39.8677 86.5268 42.7061 85.0933 45.5157C84.864 45.9458 84.6633 46.3758 84.5486 46.8346C84.4626 47.0926 84.5486 47.408 84.5773 47.6947C84.8927 47.8953 85.122 48.096 85.4087 48.2107C86.1828 48.5261 86.9569 48.8128 87.731 49.1282C90.6267 50.2463 93.5223 51.3357 96.4467 52.4252C95.5292 52.9413 94.7265 53.744 94.0957 54.7761C93.4076 55.9229 92.8342 57.1271 92.3469 58.3599C91.6014 60.2808 90.9134 62.2303 90.512 64.2659C90.0819 66.5882 89.5085 68.8818 88.9925 71.2041C88.6771 72.6662 88.4191 74.1571 88.0464 75.6192C87.7597 76.7374 87.3583 77.8555 86.8996 78.8876C86.3548 80.0631 85.4661 80.9232 84.2046 81.3246C83.9752 81.4106 83.7172 81.3819 83.4305 81.4392C83.1725 80.8085 82.9431 80.2351 82.7997 79.6044C81.2516 72.6376 80.4201 65.6134 80.3628 58.5032C80.3628 56.095 80.4201 53.6867 80.7642 51.3071V51.2784ZM70.7297 70.5446C70.9304 71.5481 71.1884 72.5515 71.4464 73.555C71.9338 75.4759 72.6792 77.3108 73.74 78.9736C75.6036 81.8693 78.0118 84.1916 80.9649 85.9404C82.6564 86.9439 84.4626 87.718 86.2975 88.4347C86.6129 88.5494 86.8996 88.6928 87.4443 88.9221C87.0716 89.0368 86.9856 89.1228 86.9282 89.0941C85.8101 88.8361 84.6633 88.6641 83.5738 88.32C79.9901 87.2019 76.7217 85.5391 73.8834 82.9874C71.1597 80.5505 69.1528 77.6261 67.834 74.1857C66.8306 71.6341 66.3145 68.9965 66.1711 66.2728C66.0278 63.4632 66.3145 60.6822 67.0026 57.9585C67.2033 57.1844 67.3753 56.3817 67.8053 55.4069C67.9487 55.8656 68.0347 56.095 68.092 56.3243C68.5508 59.048 68.9808 61.743 69.4969 64.4666C69.8696 66.5022 70.2996 68.5091 70.7297 70.516V70.5446ZM29.1868 12.6599C33.3153 10.5957 37.6445 9.87892 42.2317 10.653C45.1274 11.1404 47.7937 12.2585 50.2306 13.9214C54.4738 16.8171 58.4302 20.0854 61.8133 24.0132C63.4475 25.9055 64.9957 27.8263 66.2285 30.0053C66.4578 30.4066 66.7732 30.7794 67.0312 31.1521C68.0634 32.7576 68.7514 34.5065 69.4109 36.284C69.9269 37.7175 69.8122 39.2083 69.2962 40.5845C68.5794 42.448 68.2641 44.3976 67.9773 46.3472C67.8627 47.1786 67.6333 47.924 67.2606 48.6694C66.1138 50.9344 65.0243 53.228 63.9062 55.4929C63.7629 55.7796 63.5622 56.0663 63.3041 56.525C63.1608 56.1236 63.0461 55.8943 63.0461 55.6649C62.8454 53.7727 62.6161 51.9091 62.444 50.0169C62.0713 46.0318 61.2972 42.104 60.4945 38.1762C59.9497 35.5386 59.2043 32.9009 58.7169 30.2633C58.2009 27.511 56.8247 25.3034 54.7892 23.4972C44.3533 14.3514 32.3405 13.434 27.1513 13.8067C27.868 13.3767 28.5848 12.9753 29.3015 12.6312H29.1868V12.6599ZM10.924 51.6511C11.0961 47.2073 11.5261 42.7921 12.4149 38.4629C13.3897 33.7324 14.9092 29.1738 17.1454 24.8733C18.2922 22.6944 19.525 20.6015 21.1592 18.738C21.5319 18.3079 21.9333 17.9065 22.3347 17.5051C20.2991 21.8343 18.1489 29.2598 18.1489 31.9548C18.1489 34.6498 18.4356 36.37 19.0377 38.0042C19.8978 40.2978 20.7865 42.5627 21.8186 44.799C22.3347 45.9171 22.8508 47.0352 23.4528 48.096C22.8794 48.3254 22.3347 48.5834 21.79 48.8701C19.181 50.275 16.6294 51.7085 14.0491 53.1133C12.9883 53.7154 11.9275 54.2888 10.8667 54.8908C10.8667 53.8014 10.924 52.7119 10.9527 51.6511H10.924ZM23.0515 89.2948C22.8221 90.4416 22.5354 91.5598 22.2774 92.6779C22.2774 92.7926 22.1627 92.8786 22.1054 92.9646C21.9907 92.9646 21.9047 93.0219 21.8186 92.9646C19.9264 92.1618 11.9848 86.0264 11.1247 73.0103C10.8954 69.4265 10.8094 65.8714 10.8094 62.3164C11.6695 63.8645 12.5009 65.4414 13.361 66.9896C14.2498 68.5664 14.7372 68.7098 16.314 67.821C19.181 66.2155 22.048 64.61 24.9437 63.0044C25.8038 62.517 26.7212 62.1443 27.5813 61.7143C28.1834 61.3989 28.8141 61.1122 29.3589 60.7108C30.1616 60.1661 30.3336 59.6787 29.9896 58.7326C29.7029 57.9585 29.4162 57.1844 29.1008 56.4103C29.8462 57.3278 30.649 58.2165 31.4518 59.1053C32.5126 60.2521 36.7271 65.0113 39.8521 68.3371C38.1032 67.907 36.3543 68.1364 34.6341 68.9105C32.3119 69.9999 30.5917 71.7775 29.1295 73.7844C27.438 76.078 26.1478 78.6009 25.2017 81.2959C24.2843 83.9049 23.5675 86.5425 23.0515 89.2662V89.2948ZM15.884 152.139C16.0273 151.738 16.2853 151.365 16.5147 150.993C18.1489 148.441 20.1845 146.233 22.5067 144.313C24.5996 142.564 26.6925 140.815 28.7568 139.066C28.8428 138.98 28.9575 138.951 29.0435 138.894C29.5309 138.894 29.7316 139.295 29.9896 139.553C31.4231 141.016 32.8566 142.506 34.2901 143.969C35.7523 145.459 37.2144 146.95 38.6766 148.47C38.9633 148.756 39.2213 149.043 39.5654 149.416C39.3934 149.617 39.3074 149.789 39.1927 149.846C37.3865 150.964 35.6089 152.168 33.7167 153.143C30.993 154.548 28.126 155.752 25.087 156.325C22.9368 156.727 20.7579 156.755 18.5789 156.555C16.3427 156.354 15.0525 154.347 15.884 152.168V152.139ZM7.91369 139.869C6.93891 141.216 5.90679 142.535 4.93201 143.854C3.49851 145.775 3.49851 147.753 4.53063 149.875C11.4401 164.066 25.0297 166.36 26.5492 166.388C26.0331 166.532 25.4884 166.646 24.9723 166.761C23.5675 167.077 22.1914 167.421 20.7865 167.65C18.6649 167.994 16.5434 167.851 14.4218 167.65C12.5296 167.478 10.6373 167.163 8.83113 166.646C6.07881 165.844 3.35516 164.869 1.03289 163.149C-2.29283 160.683 -3.78367 157.386 -3.78367 153.258C-3.78367 146.061 8.17172 139.525 7.94236 139.84H7.91369V139.869Z" fill="black" fill-opacity="0.5"/>
</svg>
