<svg width="138" height="6" viewBox="0 0 138 6" fill="none" xmlns="http://www.w3.org/2000/svg">
<path d="M130.68 -0.00152588C128.674 -0.00152588 127.696 1.50831 126.833 2.84054C126.018 4.09924 125.248 5.28789 123.826 5.28789C122.405 5.28789 121.635 4.09924 120.82 2.84054C119.957 1.50831 118.979 -0.00152588 116.973 -0.00152588C114.967 -0.00152588 113.989 1.50831 113.126 2.84054C112.31 4.09924 111.54 5.28789 110.119 5.28789C108.698 5.28789 107.928 4.09924 107.113 2.84054C106.25 1.50831 105.271 -0.00152588 103.265 -0.00152588C101.259 -0.00152588 100.282 1.50831 99.4184 2.84054C98.6029 4.09924 97.8328 5.28789 96.4121 5.28789C94.9914 5.28789 94.2213 4.09924 93.4058 2.84054C92.543 1.50831 91.5647 -0.00152588 89.5587 -0.00152588C87.5528 -0.00152588 86.5745 1.50831 85.7116 2.84054C84.8962 4.09924 84.1261 5.28789 82.7054 5.28789C81.2847 5.28789 80.5139 4.09924 79.6991 2.84054C78.8363 1.50831 77.858 -0.00152588 75.852 -0.00152588C73.8461 -0.00152588 72.8678 1.50831 72.0049 2.84054C71.1895 4.09924 70.4194 5.28789 68.9987 5.28789C67.5779 5.28789 66.8072 4.09924 65.9924 2.84054C65.1296 1.50831 64.1513 -0.00152588 62.1453 -0.00152588C60.1394 -0.00152588 59.1617 1.50831 58.2982 2.84054C57.4828 4.09924 56.7127 5.28789 55.292 5.28789C53.8712 5.28789 53.1012 4.09924 52.2857 2.84054C51.4229 1.50831 50.4446 -0.00152588 48.4386 -0.00152588C46.4326 -0.00152588 45.455 1.50831 44.5922 2.84054C43.7767 4.09924 43.0066 5.28789 41.5859 5.28789C40.1652 5.28789 39.3951 4.09924 38.5797 2.84054C37.7168 1.50831 36.7385 -0.00152588 34.7326 -0.00152588C32.7266 -0.00152588 31.7483 1.50831 30.8855 2.84054C30.07 4.09924 29.2999 5.28789 27.8792 5.28789C26.4585 5.28789 25.6884 4.09924 24.8729 2.84054C24.0101 1.50831 23.0318 -0.00152588 21.0259 -0.00152588C19.0199 -0.00152588 18.0423 1.50831 17.1794 2.84054C16.364 4.09924 15.5939 5.28789 14.1732 5.28789C12.7524 5.28789 11.9824 4.09924 11.1669 2.84054C10.3041 1.50831 9.32577 -0.00152588 7.31981 -0.00152588C5.31385 -0.00152588 4.33623 1.50831 3.47339 2.84054C2.65793 4.09924 1.88784 5.28789 0.467123 5.28789C0.208871 5.28789 0 5.44448 0 5.63809C0 5.83169 0.208871 5.98828 0.467123 5.98828C2.47308 5.98828 3.4507 4.47845 4.31354 3.14621C5.129 1.88752 5.89909 0.698861 7.31981 0.698861C8.74053 0.698861 9.51061 1.88752 10.3261 3.14621C11.1889 4.47845 12.1672 5.98828 14.1732 5.98828C16.1791 5.98828 17.1567 4.47845 18.0196 3.14621C18.835 1.88752 19.6051 0.698861 21.0259 0.698861C22.4466 0.698861 23.2167 1.88752 24.0321 3.14621C24.895 4.47845 25.8732 5.98828 27.8785 5.98828C29.8845 5.98828 30.8628 4.47845 31.7256 3.14621C32.5411 1.88752 33.3112 0.698861 34.7319 0.698861C36.1526 0.698861 36.9227 1.88752 37.7382 3.14621C38.601 4.47845 39.5793 5.98828 41.5852 5.98828C43.5912 5.98828 44.5688 4.47845 45.4323 3.14621C46.2478 1.88752 47.0179 0.698861 48.4386 0.698861C49.8593 0.698861 50.6294 1.88752 51.4449 3.14621C52.3077 4.47845 53.286 5.98828 55.292 5.98828C57.2979 5.98828 58.2755 4.47845 59.139 3.14621C59.9545 1.88752 60.7246 0.698861 62.1453 0.698861C63.566 0.698861 64.3361 1.88752 65.1516 3.14621C66.0144 4.47845 66.9927 5.98828 68.9987 5.98828C71.0046 5.98828 71.9829 4.47845 72.8458 3.14621C73.6612 1.88752 74.4313 0.698861 75.852 0.698861C77.2727 0.698861 78.0428 1.88752 78.8583 3.14621C79.7211 4.47845 80.6994 5.98828 82.7054 5.98828C84.7113 5.98828 85.689 4.47845 86.5525 3.14621C87.3679 1.88752 88.138 0.698861 89.5587 0.698861C90.9794 0.698861 91.7495 1.88752 92.565 3.14621C93.4278 4.47845 94.4061 5.98828 96.4121 5.98828C98.418 5.98828 99.3957 4.47845 100.259 3.14621C101.075 1.88752 101.845 0.698861 103.265 0.698861C104.686 0.698861 105.456 1.88752 106.272 3.14621C107.135 4.47845 108.113 5.98828 110.119 5.98828C112.125 5.98828 113.103 4.47845 113.966 3.14621C114.781 1.88752 115.551 0.698861 116.973 0.698861C118.394 0.698861 119.164 1.88752 119.979 3.14621C120.842 4.47845 121.82 5.98828 123.826 5.98828C125.832 5.98828 126.81 4.47845 127.673 3.14621C128.489 1.88752 129.259 0.698861 130.68 0.698861C132.1 0.698861 132.87 1.88752 133.686 3.14621C134.549 4.47845 135.527 5.98828 137.533 5.98828C137.791 5.98828 138 5.83169 138 5.63809C138 5.44448 137.791 5.28789 137.533 5.28789C136.112 5.28789 135.342 4.09924 134.527 2.84054C133.664 1.50831 132.686 -0.00152588 130.68 -0.00152588Z" fill="#CCCCCC"/>
</svg>
